<?xml version="1.0" encoding="iso-8859-1"?>
<!-- Generator: Adobe Illustrator 19.0.0, SVG Export Plug-In . SVG Version: 6.00 Build 0)  -->
<svg version="1.1" id="Capa_1" xmlns="http://www.w3.org/2000/svg" xmlns:xlink="http://www.w3.org/1999/xlink" x="0px" y="0px"
	 viewBox="0 0 512 512" style="enable-background:new 0 0 512 512;" xml:space="preserve">
<g>
	<g>
		<path d="M256,0C160.01,0,81.92,78.09,81.92,174.08c0,104.53,159.027,324.403,165.806,333.701c1.925,2.662,4.997,4.219,8.274,4.219
			c3.277,0,6.349-1.557,8.274-4.219c6.779-9.298,165.806-229.171,165.806-333.701C430.08,78.09,351.99,0,256,0z M256,484.065
			C222.945,436.9,102.4,259.011,102.4,174.08c0-84.705,68.895-153.6,153.6-153.6s153.6,68.895,153.6,153.6
			C409.6,258.99,289.034,436.9,256,484.065z"/>
	</g>
</g>
<g>
	<g>
		<path d="M256,81.92c-50.811,0-92.16,41.349-92.16,92.16c0,50.811,41.349,92.16,92.16,92.16s92.16-41.349,92.16-92.16
			C348.16,123.269,306.811,81.92,256,81.92z M256,245.76c-39.526,0-71.68-32.154-71.68-71.68c0-39.526,32.154-71.68,71.68-71.68
			s71.68,32.154,71.68,71.68C327.68,213.606,295.526,245.76,256,245.76z"/>
	</g>
</g>
<g>
</g>
<g>
</g>
<g>
</g>
<g>
</g>
<g>
</g>
<g>
</g>
<g>
</g>
<g>
</g>
<g>
</g>
<g>
</g>
<g>
</g>
<g>
</g>
<g>
</g>
<g>
</g>
<g>
</g>
</svg>
