<svg id="Layer_1" enable-background="new 0 0 512 512" height="512" viewBox="0 0 512 512" width="512" xmlns="http://www.w3.org/2000/svg"><path d="m464.839 174.759h-58.71v-125.42c0-4.418-3.582-8-8-8h-284.257c-4.418 0-8 3.582-8 8v125.42h-58.711c-26.005 0-47.161 21.156-47.161 47.161v134.87c0 26.005 21.156 47.161 47.161 47.161h58.711v58.71c0 4.418 3.582 8 8 8h284.257c4.418 0 8-3.582 8-8v-58.71h58.71c26.005 0 47.161-21.156 47.161-47.161v-134.87c0-26.005-21.156-47.161-47.161-47.161zm-342.967-117.42h268.257v117.42h-268.257zm268.257 397.322h-268.257v-117.42h268.257zm105.871-97.871c0 17.183-13.979 31.161-31.161 31.161h-58.71v-58.71c0-4.418-3.582-8-8-8h-284.257c-4.418 0-8 3.582-8 8v58.71h-58.711c-17.182 0-31.161-13.978-31.161-31.161v-134.87c0-17.183 13.979-31.161 31.161-31.161h417.678c17.183 0 31.161 13.979 31.161 31.161zm-344.444 14.901c0-4.418 3.582-8 8-8h192.889c4.418 0 8 3.582 8 8s-3.582 8-8 8h-192.889c-4.418 0-8-3.582-8-8zm0 48.52c0-4.418 3.582-8 8-8h192.889c4.418 0 8 3.582 8 8s-3.582 8-8 8h-192.889c-4.418 0-8-3.582-8-8z"/></svg>